<svg xmlns="http://www.w3.org/2000/svg" width="500" height="500" style="width:100%;height:100%;transform:translate3d(0,0,0)" viewBox="0 0 500 500"><defs><clipPath id="a"><path d="M0 0h500v500H0z"/></clipPath><clipPath id="c"><path d="M0 0h500v500H0z"/></clipPath><clipPath id="b"><path d="M0 0h500v500H0z"/></clipPath></defs><g clip-path="url(#a)"><g fill="#121331" clip-path="url(#b)" style="display:block"><path d="M.707-2.708c-.008-.008-.018-.01-.026-.017a1 1 0 0 0-.298-.198.997.997 0 0 0-.766 0 1 1 0 0 0-.298.198c-.008.008-.018.009-.026.017l-2 2A.999.999 0 1 0-1.293.706L-1 .413v1.586a1 1 0 1 0 2 0V.413l.293.293a.997.997 0 0 0 1.414 0 .999.999 0 0 0 0-1.414l-2-2z" style="display:block" transform="translate(250.002 395.825) scale(20.83)"/><path d="M-.708 2.706a.99.99 0 0 0 .326.217.991.991 0 0 0 1.09-.217L2.707.707A.999.999 0 1 0 1.293-.707L1-.414V-2a1 1 0 1 0-2 0v1.586l-.293-.293A.999.999 0 1 0-2.707.707l1.999 1.999z" style="display:block" transform="translate(250.002 104.19) scale(20.83)"/><path d="M7-1H-7a1 1 0 1 0 0 2H7a1 1 0 1 0 0-2z" style="display:block" transform="translate(250.002 291.66) scale(20.83)"/><path d="M-7 1H7a1 1 0 1 0 0-2H-7a1 1 0 1 0 0 2z" style="display:block" transform="translate(250.002 208.34) scale(20.83)"/></g><g clip-path="url(#c)" opacity="0" style="display:block"><path style="display:none"/><path style="display:none"/><path style="display:none"/><path style="display:none"/></g><g class="com" style="display:none"><path/><path/><path/><path/><path/><path/><path/><path/><path/><path/><path/><path/></g></g></svg>